<?xml version="1.0" encoding="UTF-8"?><svg id="_레이어_2" xmlns="http://www.w3.org/2000/svg" viewBox="0 0 521.078 100"><defs><style>.cls-1{fill:#03cf5d;stroke-width:0px;}</style></defs><g id="NAVER_Logo"><path class="cls-1" d="m150,0l-39.216,100h33.333l4.736-13.235h37.587l4.736,13.235h33.333L185.294,0h-35.294Zm6.469,62.745l11.179-31.238,11.178,31.238h-22.357Z"/><polygon class="cls-1" points="363.235 62.01 408.823 62.01 408.823 37.99 363.235 37.99 363.235 24.51 409.314 24.51 409.314 0 331.372 0 331.372 100 410.294 100 410.294 75.49 363.235 75.49 363.235 62.01"/><polygon class="cls-1" points="264.216 65.753 240.686 0 207.353 0 246.569 100 281.863 100 321.078 0 287.745 0 264.216 65.753"/><polygon class="cls-1" points="68.137 53.521 30.882 0 0 0 0 100 32.353 100 32.353 46.479 69.608 100 100.49 100 100.49 0 68.137 0 68.137 53.521"/><path class="cls-1" d="m495.796,65.694l3.033-1.269c11.622-4.865,17.533-15.39,17.533-28.748,0-12.632-4.607-21.977-13.694-27.776-8.447-5.391-19.401-7.901-34.474-7.901h-42.214v100h31.372v-27.941h11.274l19.118,27.941h33.333l-25.282-34.306Zm-21.777-19.126h-17.157v-21.079h17.157c5.821,0,10.539,4.719,10.539,10.539s-4.719,10.539-10.539,10.539Z"/></g></svg>